<?xml version="1.0" encoding="UTF-8" standalone="no"?>
<svg
   width="186mm"
   height="215mm"
   version="1.1"
   viewBox="0 0 186 215"
   xmlSpace="preserve"
   id="svg3"
   sodipodi:docname="aneirin_logo.svg"
   inkscape:version="1.3 (0e150ed6c4, 2023-07-21)"
   inkscape:export-filename="aneirin_logo.png"
   inkscape:export-xdpi="96"
   inkscape:export-ydpi="96"
   xmlns:inkscape="http://www.inkscape.org/namespaces/inkscape"
   xmlns:sodipodi="http://sodipodi.sourceforge.net/DTD/sodipodi-0.dtd"
   xmlns="http://www.w3.org/2000/svg"
   xmlns:svg="http://www.w3.org/2000/svg">
  <defs
     id="defs3" />
  <sodipodi:namedview
     id="namedview3"
     pagecolor="#ffffff"
     bordercolor="#000000"
     borderopacity="0.25"
     inkscape:showpageshadow="2"
     inkscape:pageopacity="0.0"
     inkscape:pagecheckerboard="0"
     inkscape:deskcolor="#d1d1d1"
     inkscape:document-units="mm"
     inkscape:zoom="0.97904741"
     inkscape:cx="221.13331"
     inkscape:cy="443.79873"
     inkscape:window-width="2560"
     inkscape:window-height="1334"
     inkscape:window-x="708"
     inkscape:window-y="2149"
     inkscape:window-maximized="1"
     inkscape:current-layer="g3" />
  <g
     fill="none"
     stroke="#000000"
     strokeDasharray="none"
     strokeLinejoin="round"
     strokeOpacity="1"
     strokeWidth="9.715"
     id="g3"
     style="stroke-width:5;stroke-dasharray:none"
     transform="translate(-10.539581,-12.566425)">
    <path
       strokeLinecap="round"
       d="M 30.915022,58.259706 C 25.821052,58.558275 16.548082,52.756408 16.71374,42.201519 16.893844,30.756701 28.34155,18.803354 41.759812,19.192456 58.296672,19.672093 70.988736,32.302518 71.370134,50.681836 71.82473,72.565005 56.12675,96.372498 56.258699,116.45462 56.403168,138.51597 73.936863,166.593 103.65602,168.03191 M 176.39798,58.259706 c 5.093,0.298569 14.36694,-5.503298 14.20128,-16.058187 -0.18011,-11.444818 -11.62781,-23.398165 -25.04607,-23.009063 -16.53783,0.479637 -29.22892,13.110062 -29.61033,31.48938 -0.45459,21.883169 15.24339,45.690662 15.11144,65.772784 -0.14447,22.06135 -17.67816,50.13838 -47.39828,51.57729"
       id="path1"
       style="stroke:#c4f3f2;stroke-width:9.63125;stroke-linecap:round;stroke-dasharray:none;stroke-opacity:1" />
    <path
       strokeLinecap="butt"
       d="M 71.299826,42.680192 H 137.2113"
       id="path2"
       style="stroke:#c4f3f2;stroke-width:9.63125;stroke-dasharray:none;stroke-opacity:1" />
    <path
       strokeLinecap="butt"
       d="M 91.672815,42.441337 V 144.88608 c -15.879047,10.87368 -12.742148,30.63702 0,40.89237 v 34.98071 H 104.85415 M 118.03644,42.440374 V 144.88608 c 15.87904,10.87368 12.74215,30.63702 0,40.89237 v 34.98071 h -13.18229"
       id="path3"
       style="stroke:#c4f3f2;stroke-width:9.63125;stroke-dasharray:none;stroke-opacity:1" />
  </g>
</svg>
